<svg xmlns="http://www.w3.org/2000/svg" xmlns:xlink="http://www.w3.org/1999/xlink" version="1.1" x="0px" y="0px" viewBox="0 0 32 40" enable-background="new 0 0 32 32" xml:space="preserve"><path d="M16,10c-2.206,0-4,1.794-4,4s1.794,4,4,4s4-1.794,4-4S18.206,10,16,10z M16,17c-1.654,0-3-1.346-3-3s1.346-3,3-3  c1.654,0,3,1.346,3,3S17.654,17,16,17z"/><path d="M16,4C10.486,4,6,8.486,6,14c0,5.629,5.273,10.833,9.697,14.207c0.089,0.068,0.196,0.104,0.303,0.104  s0.214-0.035,0.303-0.104C20.727,24.833,26,19.629,26,14C26,8.486,21.514,4,16,4z M16,27.18c-4.178-3.24-9-8.084-9-13.18  c0-4.962,4.038-9,9-9s9,4.038,9,9C25,19.096,20.178,23.939,16,27.18z"/><text x="0" y="47" fill="#000000" font-size="5px" font-weight="bold" font-family="'Helvetica Neue', Helvetica, Arial-Unicode, Arial, Sans-serif">Created by David</text><text x="0" y="52" fill="#000000" font-size="5px" font-weight="bold" font-family="'Helvetica Neue', Helvetica, Arial-Unicode, Arial, Sans-serif">from the Noun Project</text></svg>